<?xml version="1.0" encoding="utf-8"?>
<!-- Generator: Adobe Illustrator 27.5.0, SVG Export Plug-In . SVG Version: 6.00 Build 0)  -->
<svg version="1.1" xmlns="http://www.w3.org/2000/svg" xmlns:xlink="http://www.w3.org/1999/xlink" x="0px" y="0px"
	 viewBox="0 0 600 600" style="enable-background:new 0 0 600 600;" xml:space="preserve">
<g id="background">
	<rect y="0" style="fill:#FFFFFF;" width="600" height="600"/>
</g>
<g id="objects">
	<g>
		<path style="fill:#29D663;" d="M335.733,134.257c-0.006,0.006-0.006,0.006,0.006,0.006c8.853,6.995,26.403,10.444,41.418,4.364
			c17.514-7.092,24.974-24.87,54.389-34.192c4.603-1.535,5.401-7.833,1.161-10.268c-16.715-9.625-50.322-24.489-84.02-12.046
			c-18.827,7.069-27.436,21.744-21.531,38.577l2.661,7.684L335.733,134.257z"/>
		<path style="fill:#24A04A;" d="M334.294,125.184c0.109-0.109,0.233-0.205,0.368-0.284c6.288-3.498,13.061-7.152,20.207-10.3
			l2.55-1.169c0.411-0.182,0.817-0.353,1.223-0.522c0.342-1.25,0.668-2.227,1.042-3.126c0.531-1.324,1.121-2.593,1.772-3.746
			c3.069-5.429,8.662-8.617,8.662-8.617c-1.541,1.979-6.348,6.507-8.106,13.232c-0.086,0.331-0.214,0.646-0.305,0.966l3.528-1.482
			c3.257-1.245,18.351-6.696,31.439-10.101c10.99-2.859,23.746-3.735,23.746-3.735s-14.487,2.873-22.446,5.221
			c-6.421,1.888-12.919,4.059-19.346,6.461c1.194,0.534,2.456,0.998,3.774,1.386c2.362,0.69,7.301,1.69,9.6,1.928
			c0,0-4.815,1.063-10.171,0.259c-2.43-0.365-4.616-1.316-6.606-2.284c-2.05,0.783-4.112,1.631-6.109,2.452
			c-0.919,0.378-1.838,0.756-2.759,1.129l-6.009,2.669c-0.547,0.241-1.093,0.482-1.634,0.736l-2.515,1.214
			c-6.966,3.237-13.581,6.979-19.692,10.54c-0.441,0.257-0.929,0.324-1.396,0.2c-0.468-0.123-0.859-0.421-1.102-0.839
			C333.598,126.664,333.714,125.764,334.294,125.184C334.293,125.185,334.293,125.185,334.294,125.184z"/>
		<path style="fill:#24A04A;" d="M431.55,104.44c-29.42,9.32-36.88,27.1-54.39,34.19c-15.02,6.08-32.57,2.63-41.42-4.37
			c-0.01,0-0.01,0-0.01,0l-5.91-5.88l-1.22-3.51l3.65,3.62c-0.01,0.01-0.01,0.01,0.01,0.01c8.85,6.99,26.4,10.44,41.41,4.36
			c17.52-7.09,24.98-24.87,54.39-34.19c2.35-0.78,3.71-2.8,3.91-4.92c0.25,0.14,0.5,0.28,0.74,0.42
			C436.95,96.6,436.15,102.9,431.55,104.44z"/>
		<circle style="fill:#FB9A09;" cx="300" cy="351.538" r="207.962"/>
		<path style="fill:#70392E;" d="M316.89,182.675L316.89,182.675c-8.603,0-15.51-7.222-15.1-15.82
			c2.677-56.235,18.935-100.202,27.717-119.983c2.706-6.096,10.238-8.242,15.802-4.568l17.982,11.832
			c4.984,3.269,6.382,9.913,3.142,14.917c-10.454,16.145-30.945,53.069-34.543,99.577
			C331.279,176.524,324.805,182.675,316.89,182.675z"/>
		<path style="fill:#4C231D;" d="M366.433,69.054c-10.452,16.14-30.941,53.066-34.54,99.577c-0.615,7.894-7.089,14.042-15,14.042
			c-8.608,0-15.516-7.224-15.1-15.823c0.009-0.136,0.009-0.271,0.018-0.407c3.391,2.902,8.635,6.067,15.471,6.067
			c12.659,0,4.521-56.059,36.167-104.885c4.213-6.501,5.398-12.179,4.277-17.152l5.561,3.662
			C368.278,57.399,369.67,64.045,366.433,69.054z"/>
		<path style="fill:#D87D05;" d="M507.96,351.54c0,114.85-93.11,207.96-207.96,207.96c-103.61,0-189.53-75.78-205.34-174.94
			C125.5,471.03,264.07,538.64,379,464.5c103.06-66.49,101.12-210.34,46.43-278.85C475.57,223.62,507.96,283.79,507.96,351.54z"/>
		<path style="fill:#FFC06E;" d="M207.597,261.097c-39.037,39.029-52.849,88.501-74.994,66.356
			c-22.154-22.154-8.464-71.749,30.574-110.777c39.028-39.037,88.623-52.727,110.777-30.574
			C296.098,208.247,246.625,222.059,207.597,261.097z"/>
	</g>
</g>
</svg>
